<svg id="Layer_1" data-name="Layer 1" xmlns="http://www.w3.org/2000/svg" viewBox="0 0 736.63 288.21"><defs><style>.cls-1,.cls-2,.cls-3,.cls-4{fill:#231f20;}.cls-2,.cls-3{stroke:#231f20;}.cls-2,.cls-3,.cls-4{stroke-miterlimit:10;}.cls-2{stroke-width:7px;}.cls-3{stroke-width:6px;}.cls-4{stroke:#fff;}</style></defs><path class="cls-1" d="M520.73,661.15a22.44,22.44,0,0,1-12.29,4.1q-29.64,0-76.64-47.72-30.85-31.1-46-41.46-14.22-9.65-35.19-12.53a76.49,76.49,0,0,0,27.8-17.85c4.15-4.2,18.76-19.43,21.14-43.39,2.73-27.47-12.53-47.28-17.24-53.39-23.34-30.3-58.87-33.06-64-33.37a90.25,90.25,0,0,0-47.64,10.57,84,84,0,0,1,38.37,5c6.78,2.59,26.19,10,38.19,30,13.4,22.36,12.44,51.89-1.11,72.31C341.8,540,333,553.26,316.83,555.1c-18.34,2.1-31.59-12.26-33.19-14.05-.08,15.88,2.26,36.22,15.58,44.12,4.35,2.59,6.89,2.07,11.86,3.89,18.07,6.65,21.17,27,32.26,45.8,20.26,34.39,57.38,47,64.14,49.31a116.22,116.22,0,0,0,48.18,5.66,109.81,109.81,0,0,0,28.95-7.14c-12.43-.5-30.83-2.9-49.68-12.86-23.36-12.34-32.85-29.1-50.62-47.73q-44.82-47-71.1-55.19,42.42,0,87.25,46.28,37.37,38.09,56.16,51.09,20,13.74,38.32,13.74c9.71,0,14.7-2,17.86-4.52A23.55,23.55,0,0,0,520.73,661.15Z" transform="translate(-173.43 -404.74)"/><path class="cls-1" d="M376.39,552.87c31.71-11.47,50.55-44.24,44.64-76.71-5.67-31.07-32.68-54.59-64.89-56a76,76,0,0,1,20.25,132.7Z" transform="translate(-173.43 -404.74)"/><path class="cls-2" d="M464.44,461.1a7,7,0,0,1-1.9,4.93,6.92,6.92,0,0,1-4.84,2.09c-19.42-20.77-23-26.41-22.19-27.3S442.24,443.13,464.44,461.1Zm-25.27,93.51V489.46H449.7v70.06q0,15.45,3.09,22a18,18,0,0,0,9.83,9.83h-4.36a32.17,32.17,0,0,1-14.32-11.79Q439.17,572.16,439.17,554.61ZM457.7,428.67c18.06,19.25,20.3,23.65,19.56,24.46s-5.34-1-26.3-17.3a5.91,5.91,0,0,1,.69-4.89A5.85,5.85,0,0,1,457.7,428.67ZM459,557V489.46h10.53V559.1q0,25.56,17.84,25.55a17.68,17.68,0,0,0,9.4-2.24v3.09A24.17,24.17,0,0,1,481,591.39a19.07,19.07,0,0,1-13.2-4.77q-5.76-4.92-7.16-10.81Q459,569.92,459,557Z" transform="translate(-173.43 -404.74)"/><path class="cls-2" d="M532.68,495.15q-14.48,13.2-14.47,41.14,0,26.67,12.36,40.29A34.58,34.58,0,0,1,512.88,560a51.21,51.21,0,0,1-6.18-23.72,47.69,47.69,0,0,1,3.51-18q3.38-8.7,8.15-13.47T532.68,495.15Zm83.11,59.39h5.48a47.21,47.21,0,0,1-15.87,25.13q-12.07,10-29.76,10-16,0-25.55-6.46a50.76,50.76,0,0,1-16-17.55q-6.47-11.08-6.46-27.66,0-23,12.64-37.91,12.35-14.88,39.59-14.88a109.59,109.59,0,0,1,37.91,6.88v33.13h-3q-3.37-15.44-13.76-23.72t-24.57-8.15q-16.29,0-26.82,10.95T539,534.88q0,19.38,9.55,32.29T576.34,580Q601.75,580,615.79,554.54Z" transform="translate(-173.43 -404.74)"/><path class="cls-3" d="M745.53,553a50.33,50.33,0,0,1-16.85,19.24,41.93,41.93,0,0,1-23.87,7.16q-16,0-26-10.95-10-11.1-10-29.35,0-1.55.28-8.56h65.14Q731.48,506.1,721,495.71t-24.71-10.53q-17.4,0-28.22,14.6t-10.95,36.93q0,23,11.8,38t33.55,15.17q36.23,0,49.14-36.93Zm-66.84-51.52A23.23,23.23,0,0,1,696,494.3q11.52,0,17.69,7.87a33.07,33.07,0,0,1,6.6,18h-50Q671.67,508.62,678.69,501.47Z" transform="translate(-173.43 -404.74)"/><path class="cls-3" d="M756.06,530.53q-3.24-28.08-25.84-37.49,12.64,11.94,13.34,37.49Z" transform="translate(-173.43 -404.74)"/><path class="cls-2" d="M823.6,633.93a8.52,8.52,0,0,1-.85-3.86q0-5.61,4.63-14.74l14.74-28.5-64.58-99.26q-16.71-1.27-25.56-2.39v2.39q16,2.65,31,25.69l47.6,73.57a143.35,143.35,0,0,1-18.36,23.81c-77.14,80.66-226.94,44.41-255.93,36.91,61.31,40.83,113.88,42.66,136.74,41.74,74.77-3,135.82-47.78,134.46-51.49C827.29,637.18,825,636.63,823.6,633.93Z" transform="translate(-173.43 -404.74)"/><path class="cls-2" d="M884.66,486.72q-6.6,0-18-.84-7.68-.61-8.14-.69v2.38q13.76,3.65,13.76,12.63,0,5.48-6.6,18.67l-19.8,38.19-29.48-45.49q-6-9.4-6-14,0-7,10.25-10v-2.39q-10,1.26-31.59,2.39l58.27,89,30.6-58.83q12.08-23.58,28.65-30.18v-2.39A183.91,183.91,0,0,1,884.66,486.72Z" transform="translate(-173.43 -404.74)"/><path class="cls-1" d="M273.29,520.2c-1.23-1.85-3.65-5.36-8-6-4.85-.72-9.2,2.66-10.6,3.85q-2.76,4.49-5.57,9.49c-1.77,3.18-3.42,6.29-4.93,9.3a35.29,35.29,0,0,0-1.89,9A32.23,32.23,0,0,0,244.42,560a118.08,118.08,0,0,1-6.84,13.32,116.66,116.66,0,0,1-10,14.28c-4.73,7-13.25,9.75-19.78,6.45-6.81-3.45-9.59-12.5-6.18-20.69a105.62,105.62,0,0,1,13.2-29.23,31.66,31.66,0,0,0,13.27-5.45,35.4,35.4,0,0,0,7.22-6.78L277,445.51c.11-1.05.75-8.27-3.45-11.18a7.94,7.94,0,0,0-5.45-1.1c-10.44,1.07-25,24.32-26.39,26.56a36.64,36.64,0,0,0-2.19,8.22,33.93,33.93,0,0,0,1.14,14.93l-30.25,42.59a2.37,2.37,0,0,1-2.87,0,2.71,2.71,0,0,1-.68-3l26.05-42a2.91,2.91,0,0,0-1.36-2.16,2.81,2.81,0,0,0-2.52,0l-29.65,39a2.73,2.73,0,0,1-2.47-.12,2.81,2.81,0,0,1-1.19-2.66l26.64-42.38a3,3,0,0,0-1.19-2.4,2.76,2.76,0,0,0-2.52-.19L188.54,508.8a2.82,2.82,0,0,1-2.63-.35,3.24,3.24,0,0,1-1-2.75l28.26-43.11a35.93,35.93,0,0,0,12.47-2.89,39.39,39.39,0,0,0,8.74-5.17c3.1-8.18,8.35-18,17.78-25.84,19.24-15.93,42.42-12.26,42.47-15.75.07-4.14-32.6-14.2-65.77-3.26-1.28.43-15.95,4.9-26.63,13.86-26.74,22.42-34.75,71.07-24.34,121.91a382.11,382.11,0,0,1,13,53.33c3.89,23,3.4,32.81.45,42.58a72.35,72.35,0,0,1-14.54,26,160.7,160.7,0,0,0,46.94-19.15,176.3,176.3,0,0,0,27.8-20.87c5-5.07,25.77-27,29.33-60.59C280.85,566.79,285,537.73,273.29,520.2Z" transform="translate(-173.43 -404.74)"/><path class="cls-1" d="M307.37,499.89" transform="translate(-173.43 -404.74)"/><path class="cls-4" d="M540.39,636.25c-.31,2.44,46.38,12.06,99.76,14.55,58.38,2.72,86.78-4.86,101.07-9.58A177.48,177.48,0,0,0,779,624a169.57,169.57,0,0,0,39.63-33.88A347.45,347.45,0,0,1,738,627C634,659.16,540.81,632.79,540.39,636.25Z" transform="translate(-173.43 -404.74)"/><path class="cls-1" d="M177.64,672.36c7.09,1.5,35.38,6.6,62.72-10.08,41.3-25.21,41-76.07,40.94-78.46a130,130,0,0,1-103.66,88.54Z" transform="translate(-173.43 -404.74)"/><path class="cls-1" d="M671.94,482.68c-2.24,1.87-5.46,4.6-9.26,8-11.2,9.9-16.8,14.86-20.17,19.56-.84,1.18-9.52,13.63-8.58,29,1.55,25.38,28.18,39,29.76,39.78A86.14,86.14,0,0,1,655,562.29a69.59,69.59,0,0,1-5.45-25.46,68.62,68.62,0,0,1,1.36-14,54.42,54.42,0,0,1,4.54-14.37c2.87-5.78,4.94-6.83,9.92-14.39A105.62,105.62,0,0,0,671.94,482.68Z" transform="translate(-173.43 -404.74)"/></svg>